<svg width="66" height="66" viewBox="0 0 66 66" fill="none" xmlns="http://www.w3.org/2000/svg">
<path d="M33 66C51.2254 66 66 51.2254 66 33C66 14.7746 51.2254 0 33 0C14.7746 0 0 14.7746 0 33C0 51.2254 14.7746 66 33 66Z" fill="#56B8FF"/>
<path d="M25.3311 41.5072C24.287 41.5053 23.2698 41.1821 22.4226 40.5831C21.5754 39.9841 20.9408 39.1393 20.6081 38.1677L20.5614 38.0172C20.412 37.5583 20.3343 37.0798 20.3307 36.5981V27.6727L17.0958 38.2738C16.8978 39.0281 17.0093 39.8286 17.4063 40.503C17.8033 41.1775 18.4541 41.672 19.2186 41.8803L39.8376 47.3012C40.095 47.3667 40.3524 47.3981 40.6057 47.3981C41.9338 47.3981 43.1473 46.5328 43.4873 45.2578L44.6887 41.5072H25.3311ZM28.9981 27.7618C30.4689 27.7618 31.665 26.5875 31.665 25.1436C31.665 23.6996 30.4689 22.5254 28.9981 22.5254C27.5273 22.5254 26.3312 23.6996 26.3312 25.1436C26.3312 26.5875 27.5273 27.7618 28.9981 27.7618Z" fill="white"/>
<path d="M45.6653 18.5996H25.6637C24.7799 18.6006 23.9326 18.9458 23.3076 19.5593C22.6827 20.1728 22.3311 21.0047 22.3301 21.8723V36.2723C22.3301 38.0763 23.8262 39.5451 25.6637 39.5451H45.6653C47.5028 39.5451 48.9989 38.0763 48.9989 36.2723V21.8723C48.9989 20.0684 47.5028 18.5996 45.6653 18.5996ZM25.6637 21.2178H45.6653C45.8421 21.2178 46.0117 21.2868 46.1368 21.4095C46.2618 21.5323 46.332 21.6987 46.332 21.8723V31.1656L42.1197 26.3403C41.897 26.0891 41.6223 25.8874 41.314 25.7486C41.0057 25.6097 40.6707 25.537 40.3315 25.5352C39.9912 25.5369 39.6554 25.6117 39.3476 25.7544C39.0398 25.8971 38.7676 26.1042 38.5501 26.3612L33.5977 32.1971L31.9842 30.6171C31.5454 30.187 30.9508 29.9454 30.3307 29.9454C29.7107 29.9454 29.116 30.187 28.6773 30.6171L24.997 34.2288V21.8723C24.997 21.6987 25.0672 21.5323 25.1922 21.4095C25.3173 21.2868 25.4869 21.2178 25.6637 21.2178Z" fill="white"/>
</svg>
