<svg width="66" height="66" viewBox="0 0 66 66" fill="none" xmlns="http://www.w3.org/2000/svg">
<path d="M33 66C51.2254 66 66 51.2254 66 33C66 14.7746 51.2254 0 33 0C14.7746 0 0 14.7746 0 33C0 51.2254 14.7746 66 33 66Z" fill="#EEA8FD"/>
<path d="M47.1753 25.5913C46.2366 22.4086 43.5819 19.7539 40.3992 18.8152C37.9792 18.1112 36.307 18.1698 35.1483 19.0352C33.755 20.0765 33.5938 21.9539 33.5938 23.2886V26.9407C33.5938 30.5487 35.2364 32.3821 38.4632 32.3821H42.6726C43.9926 32.3821 45.8845 32.2207 46.9259 30.8274C47.8206 29.6834 47.894 28.0113 47.1753 25.5913Z" fill="white"/>
<path d="M43.1301 34.9931C42.7487 34.5531 42.1914 34.3038 41.6194 34.3038H36.3686C33.7872 34.3038 31.6899 32.2064 31.6899 29.6251V24.3743C31.6899 23.8023 31.4405 23.2449 31.0005 22.8636C30.5752 22.4823 29.9885 22.3063 29.4312 22.3796C25.9844 22.8196 22.8164 24.7116 20.7483 27.557C18.6656 30.4171 17.903 33.9078 18.563 37.3985C19.5163 42.4439 23.5497 46.4773 28.6098 47.4307C29.4165 47.592 30.2232 47.6654 31.0298 47.6654C33.6846 47.6654 36.2513 46.844 38.4366 45.2453C41.282 43.1773 43.1741 40.0092 43.6141 36.5625C43.6874 35.9905 43.5114 35.4185 43.1301 34.9931Z" fill="white"/>
</svg>
