<svg width="66" height="66" viewBox="0 0 66 66" fill="none" xmlns="http://www.w3.org/2000/svg">
<path d="M33 66C51.2254 66 66 51.2254 66 33C66 14.7746 51.2254 0 33 0C14.7746 0 0 14.7746 0 33C0 51.2254 14.7746 66 33 66Z" fill="#3DD9B3"/>
<path d="M45.2007 25.2273C44.654 24.934 43.5073 24.6273 41.9473 25.7207L39.9873 27.1073C39.8407 22.9607 38.0407 21.334 33.6673 21.334H25.6673C21.1073 21.334 19.334 23.1073 19.334 27.6673V38.334C19.334 41.4006 21.0007 44.6673 25.6673 44.6673H33.6673C38.0407 44.6673 39.8407 43.0406 39.9873 38.894L41.9473 40.2806C42.774 40.8673 43.494 41.054 44.0673 41.054C44.5607 41.054 44.9473 40.9073 45.2007 40.774C45.7473 40.494 46.6673 39.734 46.6673 37.8273V28.174C46.6673 26.2673 45.7473 25.5073 45.2007 25.2273ZM31.6673 32.174C30.294 32.174 29.1607 31.054 29.1607 29.6673C29.1607 28.2807 30.294 27.1607 31.6673 27.1607C33.0407 27.1607 34.174 28.2807 34.174 29.6673C34.174 31.054 33.0407 32.174 31.6673 32.174Z" fill="white"/>
</svg>
