<svg width="66" height="66" viewBox="0 0 66 66" fill="none" xmlns="http://www.w3.org/2000/svg">
<path d="M33 66C51.2254 66 66 51.2254 66 33C66 14.7746 51.2254 0 33 0C14.7746 0 0 14.7746 0 33C0 51.2254 14.7746 66 33 66Z" fill="#FF7474"/>
<path d="M42.9145 22.3806C43.0909 22.6578 42.7887 22.9808 42.4683 22.908C41.8416 22.7213 41.1483 22.628 40.4416 22.628H36.1002C35.8535 22.628 35.6211 22.5119 35.4729 22.3147L33.975 20.3213C33.7872 20.0552 33.9647 19.668 34.2904 19.668H37.9616C40.043 19.668 41.8764 20.7489 42.9145 22.3806Z" fill="white"/>
<path d="M43.8546 25.7213C43.2813 25.308 42.628 25.0013 41.9213 24.828C41.4413 24.6946 40.948 24.628 40.4413 24.628H35.4813C34.708 24.628 34.6546 24.5613 34.2413 24.0146L32.3746 21.5346C31.508 20.3746 30.828 19.668 28.6546 19.668H25.5613C22.308 19.668 19.668 22.308 19.668 25.5613V40.4413C19.668 43.6946 22.308 46.3346 25.5613 46.3346H40.4413C43.6946 46.3346 46.3346 43.6946 46.3346 40.4413V30.5213C46.3346 28.5346 45.3613 26.788 43.8546 25.7213ZM36.188 38.788H29.8013C29.2813 38.788 28.8813 38.3746 28.8813 37.8546C28.8813 37.348 29.2813 36.9213 29.8013 36.9213H36.188C36.708 36.9213 37.1213 37.348 37.1213 37.8546C37.1213 38.3746 36.708 38.788 36.188 38.788Z" fill="white"/>
</svg>
